# xmcd
#
# Track frame offsets: 
#        150
#        15873
#        28986
#        50759
#        67628
#        83295
#        102702
#        117416
#        133978
#        153844
#        166667
#
# Disc length: 2473 seconds
#
# Revision: 1
# Processed by: cddbd v1.5.1PL0 Copyright (c) Steve Scherf et al.
# Submitted via: ExactAudioCopy v0.95b3
#
DISCID=8109a70b
DTITLE=Lowry Olafson - Little Mysteries
DYEAR=1900
DGENRE=Country
TTITLE0=Little Mysteries
TTITLE1=A Thing Or Two
TTITLE2=Sunday Afternoon
TTITLE3=One Thin Wire
TTITLE4=Allways
TTITLE5=Let It Begin
TTITLE6=Cap Brule
TTITLE7=Justify The Love
TTITLE8=Sheherazade
TTITLE9=Mortar And Stone
TTITLE10=Just A Little Bit
EXTD=
EXTT0=
EXTT1=
EXTT2=
EXTT3=
EXTT4=
EXTT5=
EXTT6=
EXTT7=
EXTT8=
EXTT9=
EXTT10=
PLAYORDER=
